0
SECTION
2
HEADER
9
$INSUNITS
70
6
0
ENDSEC
0
SECTION
2
ENTITIES
0
LWPOLYLINE
8
C-AREA-BOUNDARY
90
38
70
1
10
3020.000
20
1148.312
10
3030.000
20
1149.155
10
3040.000
20
1150.000
10
3050.000
20
1150.845
10
3060.000
20
1151.688
10
3070.000
20
1152.524
10
3080.000
20
1153.350
10
3090.000
20
1154.165
10
3100.000
20
1154.964
10
3110.000
20
1155.746
10
3120.000
20
1156.506
10
3130.000
20
1157.243
10
3140.000
20
1157.953
10
3150.000
20
1158.634
10
3160.000
20
1159.284
10
3170.000
20
1159.899
10
3180.000
20
1160.479
10
3190.000
20
1161.021
10
3200.000
20
1161.522
10
3200.000
20
1203.522
10
3190.000
20
1203.021
10
3180.000
20
1202.479
10
3170.000
20
1201.899
10
3160.000
20
1201.284
10
3150.000
20
1200.634
10
3140.000
20
1199.953
10
3130.000
20
1199.243
10
3120.000
20
1198.506
10
3110.000
20
1197.746
10
3100.000
20
1196.964
10
3090.000
20
1196.165
10
3080.000
20
1195.350
10
3070.000
20
1194.524
10
3060.000
20
1193.688
10
3050.000
20
1192.845
10
3040.000
20
1192.000
10
3030.000
20
1191.155
10
3020.000
20
1190.312
0
LWPOLYLINE
8
C-AREA-BOUNDARY
90
38
70
1
10
3020.000
20
1106.312
10
3030.000
20
1107.155
10
3040.000
20
1108.000
10
3050.000
20
1108.845
10
3060.000
20
1109.688
10
3070.000
20
1110.524
10
3080.000
20
1111.350
10
3090.000
20
1112.165
10
3100.000
20
1112.964
10
3110.000
20
1113.746
10
3120.000
20
1114.506
10
3130.000
20
1115.243
10
3140.000
20
1115.953
10
3150.000
20
1116.634
10
3160.000
20
1117.284
10
3170.000
20
1117.899
10
3180.000
20
1118.479
10
3190.000
20
1119.021
10
3200.000
20
1119.522
10
3200.000
20
1161.522
10
3190.000
20
1161.021
10
3180.000
20
1160.479
10
3170.000
20
1159.899
10
3160.000
20
1159.284
10
3150.000
20
1158.634
10
3140.000
20
1157.953
10
3130.000
20
1157.243
10
3120.000
20
1156.506
10
3110.000
20
1155.746
10
3100.000
20
1154.964
10
3090.000
20
1154.165
10
3080.000
20
1153.350
10
3070.000
20
1152.524
10
3060.000
20
1151.688
10
3050.000
20
1150.845
10
3040.000
20
1150.000
10
3030.000
20
1149.155
10
3020.000
20
1148.312
0
LWPOLYLINE
8
C-AREA-BOUNDARY
90
38
70
1
10
3200.000
20
1161.522
10
3210.000
20
1161.981
10
3220.000
20
1162.396
10
3230.000
20
1162.767
10
3240.000
20
1163.090
10
3250.000
20
1163.366
10
3260.000
20
1163.593
10
3270.000
20
1163.771
10
3280.000
20
1163.898
10
3290.000
20
1163.974
10
3300.000
20
1164.000
10
3310.000
20
1163.974
10
3320.000
20
1163.898
10
3330.000
20
1163.771
10
3340.000
20
1163.593
10
3350.000
20
1163.366
10
3360.000
20
1163.090
10
3370.000
20
1162.767
10
3380.000
20
1162.396
10
3380.000
20
1204.396
10
3370.000
20
1204.767
10
3360.000
20
1205.090
10
3350.000
20
1205.366
10
3340.000
20
1205.593
10
3330.000
20
1205.771
10
3320.000
20
1205.898
10
3310.000
20
1205.974
10
3300.000
20
1206.000
10
3290.000
20
1205.974
10
3280.000
20
1205.898
10
3270.000
20
1205.771
10
3260.000
20
1205.593
10
3250.000
20
1205.366
10
3240.000
20
1205.090
10
3230.000
20
1204.767
10
3220.000
20
1204.396
10
3210.000
20
1203.981
10
3200.000
20
1203.522
0
LWPOLYLINE
8
C-AREA-BOUNDARY
90
38
70
1
10
3200.000
20
1119.522
10
3210.000
20
1119.981
10
3220.000
20
1120.396
10
3230.000
20
1120.767
10
3240.000
20
1121.090
10
3250.000
20
1121.366
10
3260.000
20
1121.593
10
3270.000
20
1121.771
10
3280.000
20
1121.898
10
3290.000
20
1121.974
10
3300.000
20
1122.000
10
3310.000
20
1121.974
10
3320.000
20
1121.898
10
3330.000
20
1121.771
10
3340.000
20
1121.593
10
3350.000
20
1121.366
10
3360.000
20
1121.090
10
3370.000
20
1120.767
10
3380.000
20
1120.396
10
3380.000
20
1162.396
10
3370.000
20
1162.767
10
3360.000
20
1163.090
10
3350.000
20
1163.366
10
3340.000
20
1163.593
10
3330.000
20
1163.771
10
3320.000
20
1163.898
10
3310.000
20
1163.974
10
3300.000
20
1164.000
10
3290.000
20
1163.974
10
3280.000
20
1163.898
10
3270.000
20
1163.771
10
3260.000
20
1163.593
10
3250.000
20
1163.366
10
3240.000
20
1163.090
10
3230.000
20
1162.767
10
3220.000
20
1162.396
10
3210.000
20
1161.981
10
3200.000
20
1161.522
0
LWPOLYLINE
8
C-AREA-BOUNDARY
90
20
70
1
10
3380.000
20
1120.396
10
3390.000
20
1119.981
10
3400.000
20
1119.522
10
3410.000
20
1119.021
10
3420.000
20
1118.479
10
3430.000
20
1117.899
10
3440.000
20
1117.284
10
3450.000
20
1116.634
10
3460.000
20
1115.953
10
3470.000
20
1115.243
10
3470.000
20
1199.243
10
3460.000
20
1199.953
10
3450.000
20
1200.634
10
3440.000
20
1201.284
10
3430.000
20
1201.899
10
3420.000
20
1202.479
10
3410.000
20
1203.021
10
3400.000
20
1203.522
10
3390.000
20
1203.981
10
3380.000
20
1204.396
0
LWPOLYLINE
8
C-AREA-BOUNDARY
90
6
70
1
10
3470.000
20
1102.000
10
3545.000
20
1084.000
10
3598.000
20
1116.000
10
3598.000
20
1206.000
10
3552.000
20
1236.000
10
3470.000
20
1216.000
0
LWPOLYLINE
8
C-AREA-BOUNDARY
90
56
70
1
10
3060.000
20
1058.000
10
3070.000
20
1055.910
10
3080.000
20
1053.849
10
3090.000
20
1051.844
10
3100.000
20
1049.922
10
3110.000
20
1048.109
10
3120.000
20
1046.430
10
3130.000
20
1044.907
10
3140.000
20
1043.562
10
3150.000
20
1042.412
10
3160.000
20
1041.472
10
3170.000
20
1040.756
10
3180.000
20
1040.273
10
3190.000
20
1040.030
10
3200.000
20
1040.030
10
3210.000
20
1040.273
10
3220.000
20
1040.756
10
3230.000
20
1041.472
10
3240.000
20
1042.412
10
3250.000
20
1043.562
10
3260.000
20
1044.907
10
3270.000
20
1046.430
10
3280.000
20
1048.109
10
3290.000
20
1049.922
10
3300.000
20
1051.844
10
3310.000
20
1053.849
10
3320.000
20
1055.910
10
3330.000
20
1058.000
10
3330.000
20
1086.000
10
3320.000
20
1083.910
10
3310.000
20
1081.849
10
3300.000
20
1079.844
10
3290.000
20
1077.922
10
3280.000
20
1076.109
10
3270.000
20
1074.430
10
3260.000
20
1072.907
10
3250.000
20
1071.562
10
3240.000
20
1070.412
10
3230.000
20
1069.472
10
3220.000
20
1068.756
10
3210.000
20
1068.273
10
3200.000
20
1068.030
10
3190.000
20
1068.030
10
3180.000
20
1068.273
10
3170.000
20
1068.756
10
3160.000
20
1069.472
10
3150.000
20
1070.412
10
3140.000
20
1071.562
10
3130.000
20
1072.907
10
3120.000
20
1074.430
10
3110.000
20
1076.109
10
3100.000
20
1077.922
10
3090.000
20
1079.844
10
3080.000
20
1081.849
10
3070.000
20
1083.910
10
3060.000
20
1086.000
0
LWPOLYLINE
8
C-DEMOLITION
90
28
70
1
10
3040.000
20
1120.000
10
3050.000
20
1120.845
10
3060.000
20
1121.688
10
3070.000
20
1122.524
10
3080.000
20
1123.350
10
3090.000
20
1124.165
10
3100.000
20
1124.964
10
3110.000
20
1125.746
10
3120.000
20
1126.506
10
3130.000
20
1127.243
10
3140.000
20
1127.953
10
3150.000
20
1128.634
10
3160.000
20
1129.284
10
3170.000
20
1129.899
10
3170.000
20
1151.899
10
3160.000
20
1151.284
10
3150.000
20
1150.634
10
3140.000
20
1149.953
10
3130.000
20
1149.243
10
3120.000
20
1148.506
10
3110.000
20
1147.746
10
3100.000
20
1146.964
10
3090.000
20
1146.165
10
3080.000
20
1145.350
10
3070.000
20
1144.524
10
3060.000
20
1143.688
10
3050.000
20
1142.845
10
3040.000
20
1142.000
0
LWPOLYLINE
8
C-EXCAVATION
90
44
70
1
10
3120.000
20
1134.506
10
3130.000
20
1135.243
10
3140.000
20
1135.953
10
3150.000
20
1136.634
10
3160.000
20
1137.284
10
3170.000
20
1137.899
10
3180.000
20
1138.479
10
3190.000
20
1139.021
10
3200.000
20
1139.522
10
3210.000
20
1139.981
10
3220.000
20
1140.396
10
3230.000
20
1140.767
10
3240.000
20
1141.090
10
3250.000
20
1141.366
10
3260.000
20
1141.593
10
3270.000
20
1141.771
10
3280.000
20
1141.898
10
3290.000
20
1141.974
10
3300.000
20
1142.000
10
3310.000
20
1141.974
10
3320.000
20
1141.898
10
3330.000
20
1141.771
10
3330.000
20
1191.771
10
3320.000
20
1191.898
10
3310.000
20
1191.974
10
3300.000
20
1192.000
10
3290.000
20
1191.974
10
3280.000
20
1191.898
10
3270.000
20
1191.771
10
3260.000
20
1191.593
10
3250.000
20
1191.366
10
3240.000
20
1191.090
10
3230.000
20
1190.767
10
3220.000
20
1190.396
10
3210.000
20
1189.981
10
3200.000
20
1189.522
10
3190.000
20
1189.021
10
3180.000
20
1188.479
10
3170.000
20
1187.899
10
3160.000
20
1187.284
10
3150.000
20
1186.634
10
3140.000
20
1185.953
10
3130.000
20
1185.243
10
3120.000
20
1184.506
0
LWPOLYLINE
8
C-ASPHALT
90
76
70
1
10
3150.000
20
1160.634
10
3160.000
20
1161.284
10
3170.000
20
1161.899
10
3180.000
20
1162.479
10
3190.000
20
1163.021
10
3200.000
20
1163.522
10
3210.000
20
1163.981
10
3220.000
20
1164.396
10
3230.000
20
1164.767
10
3240.000
20
1165.090
10
3250.000
20
1165.366
10
3260.000
20
1165.593
10
3270.000
20
1165.771
10
3280.000
20
1165.898
10
3290.000
20
1165.974
10
3300.000
20
1166.000
10
3310.000
20
1165.974
10
3320.000
20
1165.898
10
3330.000
20
1165.771
10
3340.000
20
1165.593
10
3350.000
20
1165.366
10
3360.000
20
1165.090
10
3370.000
20
1164.767
10
3380.000
20
1164.396
10
3390.000
20
1163.981
10
3400.000
20
1163.522
10
3410.000
20
1163.021
10
3420.000
20
1162.479
10
3430.000
20
1161.899
10
3440.000
20
1161.284
10
3450.000
20
1160.634
10
3460.000
20
1159.953
10
3470.000
20
1159.243
10
3480.000
20
1158.506
10
3490.000
20
1157.746
10
3500.000
20
1156.964
10
3510.000
20
1156.165
10
3520.000
20
1155.350
10
3520.000
20
1167.350
10
3510.000
20
1168.165
10
3500.000
20
1168.964
10
3490.000
20
1169.746
10
3480.000
20
1170.506
10
3470.000
20
1171.243
10
3460.000
20
1171.953
10
3450.000
20
1172.634
10
3440.000
20
1173.284
10
3430.000
20
1173.899
10
3420.000
20
1174.479
10
3410.000
20
1175.021
10
3400.000
20
1175.522
10
3390.000
20
1175.981
10
3380.000
20
1176.396
10
3370.000
20
1176.767
10
3360.000
20
1177.090
10
3350.000
20
1177.366
10
3340.000
20
1177.593
10
3330.000
20
1177.771
10
3320.000
20
1177.898
10
3310.000
20
1177.974
10
3300.000
20
1178.000
10
3290.000
20
1177.974
10
3280.000
20
1177.898
10
3270.000
20
1177.771
10
3260.000
20
1177.593
10
3250.000
20
1177.366
10
3240.000
20
1177.090
10
3230.000
20
1176.767
10
3220.000
20
1176.396
10
3210.000
20
1175.981
10
3200.000
20
1175.522
10
3190.000
20
1175.021
10
3180.000
20
1174.479
10
3170.000
20
1173.899
10
3160.000
20
1173.284
10
3150.000
20
1172.634
0
LWPOLYLINE
8
C-SUBBASE
90
76
70
1
10
3150.000
20
1158.634
10
3160.000
20
1159.284
10
3170.000
20
1159.899
10
3180.000
20
1160.479
10
3190.000
20
1161.021
10
3200.000
20
1161.522
10
3210.000
20
1161.981
10
3220.000
20
1162.396
10
3230.000
20
1162.767
10
3240.000
20
1163.090
10
3250.000
20
1163.366
10
3260.000
20
1163.593
10
3270.000
20
1163.771
10
3280.000
20
1163.898
10
3290.000
20
1163.974
10
3300.000
20
1164.000
10
3310.000
20
1163.974
10
3320.000
20
1163.898
10
3330.000
20
1163.771
10
3340.000
20
1163.593
10
3350.000
20
1163.366
10
3360.000
20
1163.090
10
3370.000
20
1162.767
10
3380.000
20
1162.396
10
3390.000
20
1161.981
10
3400.000
20
1161.522
10
3410.000
20
1161.021
10
3420.000
20
1160.479
10
3430.000
20
1159.899
10
3440.000
20
1159.284
10
3450.000
20
1158.634
10
3460.000
20
1157.953
10
3470.000
20
1157.243
10
3480.000
20
1156.506
10
3490.000
20
1155.746
10
3500.000
20
1154.964
10
3510.000
20
1154.165
10
3520.000
20
1153.350
10
3520.000
20
1169.350
10
3510.000
20
1170.165
10
3500.000
20
1170.964
10
3490.000
20
1171.746
10
3480.000
20
1172.506
10
3470.000
20
1173.243
10
3460.000
20
1173.953
10
3450.000
20
1174.634
10
3440.000
20
1175.284
10
3430.000
20
1175.899
10
3420.000
20
1176.479
10
3410.000
20
1177.021
10
3400.000
20
1177.522
10
3390.000
20
1177.981
10
3380.000
20
1178.396
10
3370.000
20
1178.767
10
3360.000
20
1179.090
10
3350.000
20
1179.366
10
3340.000
20
1179.593
10
3330.000
20
1179.771
10
3320.000
20
1179.898
10
3310.000
20
1179.974
10
3300.000
20
1180.000
10
3290.000
20
1179.974
10
3280.000
20
1179.898
10
3270.000
20
1179.771
10
3260.000
20
1179.593
10
3250.000
20
1179.366
10
3240.000
20
1179.090
10
3230.000
20
1178.767
10
3220.000
20
1178.396
10
3210.000
20
1177.981
10
3200.000
20
1177.522
10
3190.000
20
1177.021
10
3180.000
20
1176.479
10
3170.000
20
1175.899
10
3160.000
20
1175.284
10
3150.000
20
1174.634
0
LWPOLYLINE
8
C-FILL
90
6
70
1
10
3448.000
20
1176.000
10
3512.000
20
1188.000
10
3560.000
20
1214.000
10
3540.000
20
1228.000
10
3478.000
20
1214.000
10
3440.000
20
1196.000
0
LWPOLYLINE
8
C-BASECOURSE
90
56
70
1
10
3060.000
20
1066.000
10
3070.000
20
1063.910
10
3080.000
20
1061.849
10
3090.000
20
1059.844
10
3100.000
20
1057.922
10
3110.000
20
1056.109
10
3120.000
20
1054.430
10
3130.000
20
1052.907
10
3140.000
20
1051.562
10
3150.000
20
1050.412
10
3160.000
20
1049.472
10
3170.000
20
1048.756
10
3180.000
20
1048.273
10
3190.000
20
1048.030
10
3200.000
20
1048.030
10
3210.000
20
1048.273
10
3220.000
20
1048.756
10
3230.000
20
1049.472
10
3240.000
20
1050.412
10
3250.000
20
1051.562
10
3260.000
20
1052.907
10
3270.000
20
1054.430
10
3280.000
20
1056.109
10
3290.000
20
1057.922
10
3300.000
20
1059.844
10
3310.000
20
1061.849
10
3320.000
20
1063.910
10
3330.000
20
1066.000
10
3330.000
20
1078.000
10
3320.000
20
1075.910
10
3310.000
20
1073.849
10
3300.000
20
1071.844
10
3290.000
20
1069.922
10
3280.000
20
1068.109
10
3270.000
20
1066.430
10
3260.000
20
1064.907
10
3250.000
20
1063.562
10
3240.000
20
1062.412
10
3230.000
20
1061.472
10
3220.000
20
1060.756
10
3210.000
20
1060.273
10
3200.000
20
1060.030
10
3190.000
20
1060.030
10
3180.000
20
1060.273
10
3170.000
20
1060.756
10
3160.000
20
1061.472
10
3150.000
20
1062.412
10
3140.000
20
1063.562
10
3130.000
20
1064.907
10
3120.000
20
1066.430
10
3110.000
20
1068.109
10
3100.000
20
1069.922
10
3090.000
20
1071.844
10
3080.000
20
1073.849
10
3070.000
20
1075.910
10
3060.000
20
1078.000
0
LWPOLYLINE
8
C-CURB
90
38
70
0
10
3150.000
20
1172.634
10
3160.000
20
1173.284
10
3170.000
20
1173.899
10
3180.000
20
1174.479
10
3190.000
20
1175.021
10
3200.000
20
1175.522
10
3210.000
20
1175.981
10
3220.000
20
1176.396
10
3230.000
20
1176.767
10
3240.000
20
1177.090
10
3250.000
20
1177.366
10
3260.000
20
1177.593
10
3270.000
20
1177.771
10
3280.000
20
1177.898
10
3290.000
20
1177.974
10
3300.000
20
1178.000
10
3310.000
20
1177.974
10
3320.000
20
1177.898
10
3330.000
20
1177.771
10
3340.000
20
1177.593
10
3350.000
20
1177.366
10
3360.000
20
1177.090
10
3370.000
20
1176.767
10
3380.000
20
1176.396
10
3390.000
20
1175.981
10
3400.000
20
1175.522
10
3410.000
20
1175.021
10
3420.000
20
1174.479
10
3430.000
20
1173.899
10
3440.000
20
1173.284
10
3450.000
20
1172.634
10
3460.000
20
1171.953
10
3470.000
20
1171.243
10
3480.000
20
1170.506
10
3490.000
20
1169.746
10
3500.000
20
1168.964
10
3510.000
20
1168.165
10
3520.000
20
1167.350
0
LWPOLYLINE
8
C-STORMWATER
90
14
70
0
10
3220.000
20
1188.396
10
3245.000
20
1189.234
10
3270.000
20
1189.771
10
3295.000
20
1189.994
10
3320.000
20
1189.898
10
3345.000
20
1189.486
10
3370.000
20
1188.767
10
3395.000
20
1187.757
10
3420.000
20
1186.479
10
3445.000
20
1184.963
10
3470.000
20
1183.243
10
3505.000
20
1196.000
10
3548.000
20
1214.000
10
3580.000
20
1190.000
0
LWPOLYLINE
8
C-ROAD-REF
90
61
70
0
10
3000.000
20
1146.650
10
3010.000
20
1147.476
10
3020.000
20
1148.312
10
3030.000
20
1149.155
10
3040.000
20
1150.000
10
3050.000
20
1150.845
10
3060.000
20
1151.688
10
3070.000
20
1152.524
10
3080.000
20
1153.350
10
3090.000
20
1154.165
10
3100.000
20
1154.964
10
3110.000
20
1155.746
10
3120.000
20
1156.506
10
3130.000
20
1157.243
10
3140.000
20
1157.953
10
3150.000
20
1158.634
10
3160.000
20
1159.284
10
3170.000
20
1159.899
10
3180.000
20
1160.479
10
3190.000
20
1161.021
10
3200.000
20
1161.522
10
3210.000
20
1161.981
10
3220.000
20
1162.396
10
3230.000
20
1162.767
10
3240.000
20
1163.090
10
3250.000
20
1163.366
10
3260.000
20
1163.593
10
3270.000
20
1163.771
10
3280.000
20
1163.898
10
3290.000
20
1163.974
10
3300.000
20
1164.000
10
3310.000
20
1163.974
10
3320.000
20
1163.898
10
3330.000
20
1163.771
10
3340.000
20
1163.593
10
3350.000
20
1163.366
10
3360.000
20
1163.090
10
3370.000
20
1162.767
10
3380.000
20
1162.396
10
3390.000
20
1161.981
10
3400.000
20
1161.522
10
3410.000
20
1161.021
10
3420.000
20
1160.479
10
3430.000
20
1159.899
10
3440.000
20
1159.284
10
3450.000
20
1158.634
10
3460.000
20
1157.953
10
3470.000
20
1157.243
10
3480.000
20
1156.506
10
3490.000
20
1155.746
10
3500.000
20
1154.964
10
3510.000
20
1154.165
10
3520.000
20
1153.350
10
3530.000
20
1152.524
10
3540.000
20
1151.688
10
3550.000
20
1150.845
10
3560.000
20
1150.000
10
3570.000
20
1149.155
10
3580.000
20
1148.312
10
3590.000
20
1147.476
10
3600.000
20
1146.650
0
LWPOLYLINE
8
C-ROAD-REF
90
61
70
0
10
3000.000
20
1162.650
10
3010.000
20
1163.476
10
3020.000
20
1164.312
10
3030.000
20
1165.155
10
3040.000
20
1166.000
10
3050.000
20
1166.845
10
3060.000
20
1167.688
10
3070.000
20
1168.524
10
3080.000
20
1169.350
10
3090.000
20
1170.165
10
3100.000
20
1170.964
10
3110.000
20
1171.746
10
3120.000
20
1172.506
10
3130.000
20
1173.243
10
3140.000
20
1173.953
10
3150.000
20
1174.634
10
3160.000
20
1175.284
10
3170.000
20
1175.899
10
3180.000
20
1176.479
10
3190.000
20
1177.021
10
3200.000
20
1177.522
10
3210.000
20
1177.981
10
3220.000
20
1178.396
10
3230.000
20
1178.767
10
3240.000
20
1179.090
10
3250.000
20
1179.366
10
3260.000
20
1179.593
10
3270.000
20
1179.771
10
3280.000
20
1179.898
10
3290.000
20
1179.974
10
3300.000
20
1180.000
10
3310.000
20
1179.974
10
3320.000
20
1179.898
10
3330.000
20
1179.771
10
3340.000
20
1179.593
10
3350.000
20
1179.366
10
3360.000
20
1179.090
10
3370.000
20
1178.767
10
3380.000
20
1178.396
10
3390.000
20
1177.981
10
3400.000
20
1177.522
10
3410.000
20
1177.021
10
3420.000
20
1176.479
10
3430.000
20
1175.899
10
3440.000
20
1175.284
10
3450.000
20
1174.634
10
3460.000
20
1173.953
10
3470.000
20
1173.243
10
3480.000
20
1172.506
10
3490.000
20
1171.746
10
3500.000
20
1170.964
10
3510.000
20
1170.165
10
3520.000
20
1169.350
10
3530.000
20
1168.524
10
3540.000
20
1167.688
10
3550.000
20
1166.845
10
3560.000
20
1166.000
10
3570.000
20
1165.155
10
3580.000
20
1164.312
10
3590.000
20
1163.476
10
3600.000
20
1162.650
0
LWPOLYLINE
8
C-ROAD-REF
90
61
70
0
10
3000.000
20
1130.650
10
3010.000
20
1131.476
10
3020.000
20
1132.312
10
3030.000
20
1133.155
10
3040.000
20
1134.000
10
3050.000
20
1134.845
10
3060.000
20
1135.688
10
3070.000
20
1136.524
10
3080.000
20
1137.350
10
3090.000
20
1138.165
10
3100.000
20
1138.964
10
3110.000
20
1139.746
10
3120.000
20
1140.506
10
3130.000
20
1141.243
10
3140.000
20
1141.953
10
3150.000
20
1142.634
10
3160.000
20
1143.284
10
3170.000
20
1143.899
10
3180.000
20
1144.479
10
3190.000
20
1145.021
10
3200.000
20
1145.522
10
3210.000
20
1145.981
10
3220.000
20
1146.396
10
3230.000
20
1146.767
10
3240.000
20
1147.090
10
3250.000
20
1147.366
10
3260.000
20
1147.593
10
3270.000
20
1147.771
10
3280.000
20
1147.898
10
3290.000
20
1147.974
10
3300.000
20
1148.000
10
3310.000
20
1147.974
10
3320.000
20
1147.898
10
3330.000
20
1147.771
10
3340.000
20
1147.593
10
3350.000
20
1147.366
10
3360.000
20
1147.090
10
3370.000
20
1146.767
10
3380.000
20
1146.396
10
3390.000
20
1145.981
10
3400.000
20
1145.522
10
3410.000
20
1145.021
10
3420.000
20
1144.479
10
3430.000
20
1143.899
10
3440.000
20
1143.284
10
3450.000
20
1142.634
10
3460.000
20
1141.953
10
3470.000
20
1141.243
10
3480.000
20
1140.506
10
3490.000
20
1139.746
10
3500.000
20
1138.964
10
3510.000
20
1138.165
10
3520.000
20
1137.350
10
3530.000
20
1136.524
10
3540.000
20
1135.688
10
3550.000
20
1134.845
10
3560.000
20
1134.000
10
3570.000
20
1133.155
10
3580.000
20
1132.312
10
3590.000
20
1131.476
10
3600.000
20
1130.650
0
LWPOLYLINE
8
C-ROAD-REF
90
3
70
0
10
3150.000
20
1248.000
10
3260.000
20
1252.000
10
3420.000
20
1246.000
0
LWPOLYLINE
8
C-ROAD-REF
90
3
70
0
10
3150.000
20
1262.000
10
3260.000
20
1266.000
10
3420.000
20
1260.000
0
LWPOLYLINE
8
C-ROAD-REF
90
33
70
0
10
3564.000
20
1170.000
10
3563.385
20
1175.072
10
3561.564
20
1179.950
10
3558.607
20
1184.445
10
3554.627
20
1188.385
10
3549.778
20
1191.618
10
3544.246
20
1194.021
10
3538.243
20
1195.500
10
3532.000
20
1196.000
10
3525.757
20
1195.500
10
3519.754
20
1194.021
10
3514.222
20
1191.618
10
3509.373
20
1188.385
10
3505.393
20
1184.445
10
3502.436
20
1179.950
10
3500.615
20
1175.072
10
3500.000
20
1170.000
10
3500.615
20
1164.928
10
3502.436
20
1160.050
10
3505.393
20
1155.555
10
3509.373
20
1151.615
10
3514.222
20
1148.382
10
3519.754
20
1145.979
10
3525.757
20
1144.500
10
3532.000
20
1144.000
10
3538.243
20
1144.500
10
3544.246
20
1145.979
10
3549.778
20
1148.382
10
3554.627
20
1151.615
10
3558.607
20
1155.555
10
3561.564
20
1160.050
10
3563.385
20
1164.928
10
3564.000
20
1170.000
0
LWPOLYLINE
8
C-ROAD-REF
90
28
70
0
10
3060.000
20
1079.000
10
3070.000
20
1076.910
10
3080.000
20
1074.849
10
3090.000
20
1072.844
10
3100.000
20
1070.922
10
3110.000
20
1069.109
10
3120.000
20
1067.430
10
3130.000
20
1065.907
10
3140.000
20
1064.562
10
3150.000
20
1063.412
10
3160.000
20
1062.472
10
3170.000
20
1061.756
10
3180.000
20
1061.273
10
3190.000
20
1061.030
10
3200.000
20
1061.030
10
3210.000
20
1061.273
10
3220.000
20
1061.756
10
3230.000
20
1062.472
10
3240.000
20
1063.412
10
3250.000
20
1064.562
10
3260.000
20
1065.907
10
3270.000
20
1067.430
10
3280.000
20
1069.109
10
3290.000
20
1070.922
10
3300.000
20
1072.844
10
3310.000
20
1074.849
10
3320.000
20
1076.910
10
3330.000
20
1079.000
0
LWPOLYLINE
8
C-ROAD-REF
90
28
70
0
10
3060.000
20
1065.000
10
3070.000
20
1062.910
10
3080.000
20
1060.849
10
3090.000
20
1058.844
10
3100.000
20
1056.922
10
3110.000
20
1055.109
10
3120.000
20
1053.430
10
3130.000
20
1051.907
10
3140.000
20
1050.562
10
3150.000
20
1049.412
10
3160.000
20
1048.472
10
3170.000
20
1047.756
10
3180.000
20
1047.273
10
3190.000
20
1047.030
10
3200.000
20
1047.030
10
3210.000
20
1047.273
10
3220.000
20
1047.756
10
3230.000
20
1048.472
10
3240.000
20
1049.412
10
3250.000
20
1050.562
10
3260.000
20
1051.907
10
3270.000
20
1053.430
10
3280.000
20
1055.109
10
3290.000
20
1056.922
10
3300.000
20
1058.844
10
3310.000
20
1060.849
10
3320.000
20
1062.910
10
3330.000
20
1065.000
0
TEXT
8
C-ANNO
10
3000.000
20
1146.650
40
2.5
1
0+000
0
TEXT
8
C-ANNO
10
3100.000
20
1154.964
40
2.5
1
0+100
0
TEXT
8
C-ANNO
10
3200.000
20
1161.522
40
2.5
1
0+200
0
TEXT
8
C-ANNO
10
3300.000
20
1164.000
40
2.5
1
0+300
0
TEXT
8
C-ANNO
10
3400.000
20
1161.522
40
2.5
1
0+400
0
TEXT
8
C-ANNO
10
3500.000
20
1154.964
40
2.5
1
0+500
0
TEXT
8
C-ANNO
10
3600.000
20
1146.650
40
2.5
1
0+600
0
ENDSEC
0
EOF
