0
SECTION
2
HEADER
9
$INSUNITS
70
6
0
ENDSEC
0
SECTION
2
ENTITIES
0
LWPOLYLINE
8
C-AREA-BOUNDARY
90
116
70
1
10
485040.000
20
4512251.070
10
485046.000
20
4512251.970
10
485052.000
20
4512252.870
10
485058.000
20
4512253.770
10
485064.000
20
4512254.670
10
485070.000
20
4512255.560
10
485076.000
20
4512256.450
10
485082.000
20
4512257.330
10
485088.000
20
4512258.210
10
485094.000
20
4512259.080
10
485100.000
20
4512259.950
10
485106.000
20
4512260.810
10
485112.000
20
4512261.670
10
485118.000
20
4512262.520
10
485124.000
20
4512263.360
10
485130.000
20
4512264.200
10
485136.000
20
4512265.030
10
485142.000
20
4512265.850
10
485148.000
20
4512266.660
10
485154.000
20
4512267.470
10
485160.000
20
4512268.270
10
485166.000
20
4512269.050
10
485172.000
20
4512269.830
10
485178.000
20
4512270.610
10
485184.000
20
4512271.370
10
485190.000
20
4512272.120
10
485196.000
20
4512272.860
10
485202.000
20
4512273.590
10
485208.000
20
4512274.310
10
485214.000
20
4512275.020
10
485220.000
20
4512275.720
10
485226.000
20
4512276.410
10
485232.000
20
4512277.090
10
485238.000
20
4512277.760
10
485244.000
20
4512278.410
10
485250.000
20
4512279.050
10
485256.000
20
4512279.680
10
485262.000
20
4512280.300
10
485268.000
20
4512280.910
10
485274.000
20
4512281.500
10
485280.000
20
4512282.080
10
485286.000
20
4512282.650
10
485292.000
20
4512283.200
10
485298.000
20
4512283.750
10
485304.000
20
4512284.270
10
485310.000
20
4512284.790
10
485316.000
20
4512285.290
10
485322.000
20
4512285.780
10
485328.000
20
4512286.260
10
485334.000
20
4512286.720
10
485340.000
20
4512287.160
10
485346.000
20
4512287.600
10
485352.000
20
4512288.020
10
485358.000
20
4512288.420
10
485364.000
20
4512288.820
10
485370.000
20
4512289.200
10
485376.000
20
4512289.560
10
485380.000
20
4512289.800
10
485380.000
20
4512369.800
10
485376.000
20
4512369.560
10
485370.000
20
4512369.200
10
485364.000
20
4512368.820
10
485358.000
20
4512368.420
10
485352.000
20
4512368.020
10
485346.000
20
4512367.600
10
485340.000
20
4512367.160
10
485334.000
20
4512366.720
10
485328.000
20
4512366.260
10
485322.000
20
4512365.780
10
485316.000
20
4512365.290
10
485310.000
20
4512364.790
10
485304.000
20
4512364.270
10
485298.000
20
4512363.750
10
485292.000
20
4512363.200
10
485286.000
20
4512362.650
10
485280.000
20
4512362.080
10
485274.000
20
4512361.500
10
485268.000
20
4512360.910
10
485262.000
20
4512360.300
10
485256.000
20
4512359.680
10
485250.000
20
4512359.050
10
485244.000
20
4512358.410
10
485238.000
20
4512357.760
10
485232.000
20
4512357.090
10
485226.000
20
4512356.410
10
485220.000
20
4512355.720
10
485214.000
20
4512355.020
10
485208.000
20
4512354.310
10
485202.000
20
4512353.590
10
485196.000
20
4512352.860
10
485190.000
20
4512352.120
10
485184.000
20
4512351.370
10
485178.000
20
4512350.610
10
485172.000
20
4512349.830
10
485166.000
20
4512349.050
10
485160.000
20
4512348.270
10
485154.000
20
4512347.470
10
485148.000
20
4512346.660
10
485142.000
20
4512345.850
10
485136.000
20
4512345.030
10
485130.000
20
4512344.200
10
485124.000
20
4512343.360
10
485118.000
20
4512342.520
10
485112.000
20
4512341.670
10
485106.000
20
4512340.810
10
485100.000
20
4512339.950
10
485094.000
20
4512339.080
10
485088.000
20
4512338.210
10
485082.000
20
4512337.330
10
485076.000
20
4512336.450
10
485070.000
20
4512335.560
10
485064.000
20
4512334.670
10
485058.000
20
4512333.770
10
485052.000
20
4512332.870
10
485046.000
20
4512331.970
10
485040.000
20
4512331.070
0
LWPOLYLINE
8
C-AREA-BOUNDARY
90
76
70
1
10
485380.000
20
4512289.800
10
485386.000
20
4512290.140
10
485392.000
20
4512290.460
10
485398.000
20
4512290.780
10
485404.000
20
4512291.080
10
485410.000
20
4512291.360
10
485416.000
20
4512291.640
10
485422.000
20
4512291.900
10
485428.000
20
4512292.140
10
485434.000
20
4512292.370
10
485440.000
20
4512292.590
10
485446.000
20
4512292.790
10
485452.000
20
4512292.990
10
485458.000
20
4512293.160
10
485464.000
20
4512293.330
10
485470.000
20
4512293.480
10
485476.000
20
4512293.620
10
485482.000
20
4512293.750
10
485488.000
20
4512293.860
10
485494.000
20
4512293.960
10
485500.000
20
4512294.050
10
485506.000
20
4512294.130
10
485512.000
20
4512294.200
10
485518.000
20
4512294.250
10
485524.000
20
4512294.290
10
485530.000
20
4512294.320
10
485536.000
20
4512294.340
10
485542.000
20
4512294.350
10
485548.000
20
4512294.350
10
485554.000
20
4512294.340
10
485560.000
20
4512294.320
10
485566.000
20
4512294.290
10
485572.000
20
4512294.250
10
485578.000
20
4512294.190
10
485584.000
20
4512294.130
10
485590.000
20
4512294.070
10
485596.000
20
4512293.990
10
485600.000
20
4512293.930
10
485600.000
20
4512373.930
10
485596.000
20
4512373.990
10
485590.000
20
4512374.070
10
485584.000
20
4512374.130
10
485578.000
20
4512374.190
10
485572.000
20
4512374.250
10
485566.000
20
4512374.290
10
485560.000
20
4512374.320
10
485554.000
20
4512374.340
10
485548.000
20
4512374.350
10
485542.000
20
4512374.350
10
485536.000
20
4512374.340
10
485530.000
20
4512374.320
10
485524.000
20
4512374.290
10
485518.000
20
4512374.250
10
485512.000
20
4512374.200
10
485506.000
20
4512374.130
10
485500.000
20
4512374.050
10
485494.000
20
4512373.960
10
485488.000
20
4512373.860
10
485482.000
20
4512373.750
10
485476.000
20
4512373.620
10
485470.000
20
4512373.480
10
485464.000
20
4512373.330
10
485458.000
20
4512373.160
10
485452.000
20
4512372.990
10
485446.000
20
4512372.790
10
485440.000
20
4512372.590
10
485434.000
20
4512372.370
10
485428.000
20
4512372.140
10
485422.000
20
4512371.900
10
485416.000
20
4512371.640
10
485410.000
20
4512371.360
10
485404.000
20
4512371.080
10
485398.000
20
4512370.780
10
485392.000
20
4512370.460
10
485386.000
20
4512370.140
10
485380.000
20
4512369.800
0
LWPOLYLINE
8
C-AREA-BOUNDARY
90
42
70
1
10
485600.000
20
4512293.930
10
485606.000
20
4512293.840
10
485612.000
20
4512293.740
10
485618.000
20
4512293.630
10
485624.000
20
4512293.520
10
485630.000
20
4512293.400
10
485636.000
20
4512293.270
10
485642.000
20
4512293.140
10
485648.000
20
4512293.000
10
485654.000
20
4512292.850
10
485660.000
20
4512292.700
10
485666.000
20
4512292.540
10
485672.000
20
4512292.380
10
485678.000
20
4512292.210
10
485684.000
20
4512292.040
10
485690.000
20
4512291.870
10
485696.000
20
4512291.690
10
485702.000
20
4512291.510
10
485708.000
20
4512291.330
10
485714.000
20
4512291.140
10
485720.000
20
4512290.960
10
485720.000
20
4512370.960
10
485714.000
20
4512371.140
10
485708.000
20
4512371.330
10
485702.000
20
4512371.510
10
485696.000
20
4512371.690
10
485690.000
20
4512371.870
10
485684.000
20
4512372.040
10
485678.000
20
4512372.210
10
485672.000
20
4512372.380
10
485666.000
20
4512372.540
10
485660.000
20
4512372.700
10
485654.000
20
4512372.850
10
485648.000
20
4512373.000
10
485642.000
20
4512373.140
10
485636.000
20
4512373.270
10
485630.000
20
4512373.400
10
485624.000
20
4512373.520
10
485618.000
20
4512373.630
10
485612.000
20
4512373.740
10
485606.000
20
4512373.840
10
485600.000
20
4512373.930
0
LWPOLYLINE
8
C-AREA-BOUNDARY
90
8
70
1
10
485720.000
20
4512150.000
10
485960.000
20
4512150.000
10
485960.000
20
4512285.650
10
485960.000
20
4512385.650
10
485975.000
20
4512424.000
10
485955.000
20
4512476.000
10
485850.000
20
4512476.000
10
485720.000
20
4512425.960
0
LWPOLYLINE
8
C-AREA-BOUNDARY
90
72
70
1
10
485960.000
20
4512285.650
10
485966.000
20
4512285.660
10
485972.000
20
4512285.690
10
485978.000
20
4512285.720
10
485984.000
20
4512285.770
10
485990.000
20
4512285.820
10
485996.000
20
4512285.890
10
486002.000
20
4512285.980
10
486008.000
20
4512286.070
10
486014.000
20
4512286.180
10
486020.000
20
4512286.290
10
486026.000
20
4512286.420
10
486032.000
20
4512286.570
10
486038.000
20
4512286.720
10
486044.000
20
4512286.890
10
486050.000
20
4512287.080
10
486056.000
20
4512287.270
10
486062.000
20
4512287.480
10
486068.000
20
4512287.700
10
486074.000
20
4512287.940
10
486080.000
20
4512288.190
10
486086.000
20
4512288.450
10
486092.000
20
4512288.730
10
486098.000
20
4512289.020
10
486104.000
20
4512289.330
10
486110.000
20
4512289.640
10
486116.000
20
4512289.980
10
486122.000
20
4512290.320
10
486128.000
20
4512290.680
10
486134.000
20
4512291.060
10
486140.000
20
4512291.440
10
486146.000
20
4512291.850
10
486152.000
20
4512292.260
10
486158.000
20
4512292.690
10
486164.000
20
4512293.130
10
486170.000
20
4512293.590
10
486170.000
20
4512373.590
10
486164.000
20
4512373.130
10
486158.000
20
4512372.690
10
486152.000
20
4512372.260
10
486146.000
20
4512371.850
10
486140.000
20
4512371.440
10
486134.000
20
4512371.060
10
486128.000
20
4512370.680
10
486122.000
20
4512370.320
10
486116.000
20
4512369.980
10
486110.000
20
4512369.640
10
486104.000
20
4512369.330
10
486098.000
20
4512369.020
10
486092.000
20
4512368.730
10
486086.000
20
4512368.450
10
486080.000
20
4512368.190
10
486074.000
20
4512367.940
10
486068.000
20
4512367.700
10
486062.000
20
4512367.480
10
486056.000
20
4512367.270
10
486050.000
20
4512367.080
10
486044.000
20
4512366.890
10
486038.000
20
4512366.720
10
486032.000
20
4512366.570
10
486026.000
20
4512366.420
10
486020.000
20
4512366.290
10
486014.000
20
4512366.180
10
486008.000
20
4512366.070
10
486002.000
20
4512365.980
10
485996.000
20
4512365.890
10
485990.000
20
4512365.820
10
485984.000
20
4512365.770
10
485978.000
20
4512365.720
10
485972.000
20
4512365.690
10
485966.000
20
4512365.660
10
485960.000
20
4512365.650
0
LWPOLYLINE
8
C-AREA-BOUNDARY
90
187
70
1
10
485380.000
20
4512163.050
10
485384.000
20
4512163.030
10
485388.000
20
4512163.010
10
485392.000
20
4512163.000
10
485396.000
20
4512163.000
10
485400.000
20
4512163.010
10
485404.000
20
4512163.020
10
485408.000
20
4512163.040
10
485412.000
20
4512163.060
10
485416.000
20
4512163.100
10
485420.000
20
4512163.140
10
485424.000
20
4512163.190
10
485428.000
20
4512163.240
10
485432.000
20
4512163.300
10
485436.000
20
4512163.370
10
485440.000
20
4512163.450
10
485444.000
20
4512163.530
10
485448.000
20
4512163.620
10
485452.000
20
4512163.720
10
485456.000
20
4512163.820
10
485460.000
20
4512163.930
10
485464.000
20
4512164.050
10
485468.000
20
4512164.170
10
485472.000
20
4512164.310
10
485476.000
20
4512164.450
10
485480.000
20
4512164.590
10
485484.000
20
4512164.750
10
485488.000
20
4512164.910
10
485492.000
20
4512165.070
10
485496.000
20
4512165.250
10
485500.000
20
4512165.430
10
485504.000
20
4512165.620
10
485508.000
20
4512165.810
10
485512.000
20
4512166.020
10
485516.000
20
4512166.230
10
485520.000
20
4512166.440
10
485524.000
20
4512166.670
10
485528.000
20
4512166.900
10
485532.000
20
4512167.140
10
485536.000
20
4512167.380
10
485540.000
20
4512167.630
10
485544.000
20
4512167.890
10
485548.000
20
4512168.160
10
485552.000
20
4512168.430
10
485556.000
20
4512168.710
10
485560.000
20
4512169.000
10
485564.000
20
4512169.300
10
485568.000
20
4512169.600
10
485572.000
20
4512169.910
10
485576.000
20
4512170.220
10
485580.000
20
4512170.540
10
485584.000
20
4512170.870
10
485588.000
20
4512171.210
10
485592.000
20
4512171.550
10
485596.000
20
4512171.900
10
485600.000
20
4512172.260
10
485604.000
20
4512172.630
10
485608.000
20
4512173.000
10
485612.000
20
4512173.380
10
485616.000
20
4512173.770
10
485620.000
20
4512174.160
10
485624.000
20
4512174.560
10
485628.000
20
4512174.970
10
485632.000
20
4512175.380
10
485636.000
20
4512175.800
10
485640.000
20
4512176.230
10
485644.000
20
4512176.670
10
485648.000
20
4512177.110
10
485652.000
20
4512177.560
10
485656.000
20
4512178.010
10
485660.000
20
4512178.480
10
485664.000
20
4512178.950
10
485668.000
20
4512179.430
10
485672.000
20
4512179.910
10
485676.000
20
4512180.400
10
485680.000
20
4512180.900
10
485684.000
20
4512181.410
10
485688.000
20
4512181.920
10
485692.000
20
4512182.440
10
485696.000
20
4512182.970
10
485700.000
20
4512183.500
10
485704.000
20
4512184.050
10
485708.000
20
4512184.590
10
485712.000
20
4512185.150
10
485716.000
20
4512185.710
10
485720.000
20
4512186.280
10
485720.000
20
4512210.280
10
485714.000
20
4512209.430
10
485708.000
20
4512208.590
10
485702.000
20
4512207.770
10
485696.000
20
4512206.970
10
485690.000
20
4512206.180
10
485684.000
20
4512205.410
10
485678.000
20
4512204.650
10
485672.000
20
4512203.910
10
485666.000
20
4512203.190
10
485660.000
20
4512202.480
10
485654.000
20
4512201.790
10
485648.000
20
4512201.110
10
485642.000
20
4512200.450
10
485636.000
20
4512199.800
10
485630.000
20
4512199.170
10
485624.000
20
4512198.560
10
485618.000
20
4512197.960
10
485612.000
20
4512197.380
10
485606.000
20
4512196.810
10
485600.000
20
4512196.260
10
485594.000
20
4512195.730
10
485588.000
20
4512195.210
10
485582.000
20
4512194.710
10
485576.000
20
4512194.220
10
485570.000
20
4512193.750
10
485564.000
20
4512193.300
10
485558.000
20
4512192.860
10
485552.000
20
4512192.430
10
485546.000
20
4512192.030
10
485540.000
20
4512191.630
10
485534.000
20
4512191.260
10
485528.000
20
4512190.900
10
485522.000
20
4512190.560
10
485516.000
20
4512190.230
10
485510.000
20
4512189.910
10
485504.000
20
4512189.620
10
485498.000
20
4512189.340
10
485492.000
20
4512189.070
10
485486.000
20
4512188.830
10
485480.000
20
4512188.590
10
485474.000
20
4512188.380
10
485468.000
20
4512188.170
10
485462.000
20
4512187.990
10
485456.000
20
4512187.820
10
485450.000
20
4512187.670
10
485444.000
20
4512187.530
10
485438.000
20
4512187.410
10
485432.000
20
4512187.300
10
485426.000
20
4512187.210
10
485420.000
20
4512187.140
10
485414.000
20
4512187.080
10
485411.020
20
4512187.060
10
485411.000
20
4512187.010
10
485413.000
20
4512193.010
10
485415.000
20
4512199.010
10
485417.000
20
4512205.010
10
485419.000
20
4512211.010
10
485421.000
20
4512217.010
10
485423.000
20
4512223.010
10
485425.000
20
4512229.010
10
485427.000
20
4512235.010
10
485429.000
20
4512241.010
10
485431.000
20
4512247.010
10
485432.910
20
4512253.010
10
485434.710
20
4512259.010
10
485436.520
20
4512265.010
10
485438.330
20
4512271.010
10
485440.130
20
4512277.010
10
485441.940
20
4512283.010
10
485443.750
20
4512289.010
10
485444.750
20
4512292.750
10
485441.750
20
4512292.650
10
485438.750
20
4512292.550
10
485435.750
20
4512292.440
10
485432.750
20
4512292.320
10
485429.750
20
4512292.210
10
485426.750
20
4512292.090
10
485423.750
20
4512291.970
10
485420.750
20
4512291.840
10
485419.750
20
4512289.010
10
485417.940
20
4512283.010
10
485416.130
20
4512277.010
10
485414.330
20
4512271.010
10
485412.520
20
4512265.010
10
485410.710
20
4512259.010
10
485408.910
20
4512253.010
10
485407.000
20
4512247.010
10
485405.000
20
4512241.010
10
485403.000
20
4512235.010
10
485401.000
20
4512229.010
10
485399.000
20
4512223.010
10
485397.000
20
4512217.010
10
485395.000
20
4512211.010
10
485393.000
20
4512205.010
10
485391.000
20
4512199.010
10
485389.000
20
4512193.010
10
485387.000
20
4512187.010
10
485387.000
20
4512187.010
10
485383.000
20
4512187.030
10
485380.000
20
4512187.050
0
LWPOLYLINE
8
C-ASPHALT
90
122
70
1
10
485040.000
20
4512294.070
10
485046.000
20
4512294.970
10
485052.000
20
4512295.870
10
485058.000
20
4512296.770
10
485064.000
20
4512297.670
10
485070.000
20
4512298.560
10
485076.000
20
4512299.450
10
485082.000
20
4512300.330
10
485088.000
20
4512301.210
10
485094.000
20
4512302.080
10
485100.000
20
4512302.950
10
485106.000
20
4512303.810
10
485112.000
20
4512304.670
10
485118.000
20
4512305.520
10
485124.000
20
4512306.360
10
485130.000
20
4512307.200
10
485136.000
20
4512308.030
10
485142.000
20
4512308.850
10
485148.000
20
4512309.660
10
485154.000
20
4512310.470
10
485160.000
20
4512311.270
10
485166.000
20
4512312.050
10
485172.000
20
4512312.830
10
485178.000
20
4512313.610
10
485184.000
20
4512314.370
10
485190.000
20
4512315.120
10
485196.000
20
4512315.860
10
485202.000
20
4512316.590
10
485208.000
20
4512317.310
10
485214.000
20
4512318.020
10
485220.000
20
4512318.720
10
485226.000
20
4512319.410
10
485232.000
20
4512320.090
10
485238.000
20
4512320.760
10
485244.000
20
4512321.410
10
485250.000
20
4512322.050
10
485256.000
20
4512322.680
10
485262.000
20
4512323.300
10
485268.000
20
4512323.910
10
485274.000
20
4512324.500
10
485280.000
20
4512325.080
10
485286.000
20
4512325.650
10
485292.000
20
4512326.200
10
485298.000
20
4512326.750
10
485304.000
20
4512327.270
10
485310.000
20
4512327.790
10
485316.000
20
4512328.290
10
485322.000
20
4512328.780
10
485328.000
20
4512329.260
10
485334.000
20
4512329.720
10
485340.000
20
4512330.160
10
485346.000
20
4512330.600
10
485352.000
20
4512331.020
10
485358.000
20
4512331.420
10
485364.000
20
4512331.820
10
485370.000
20
4512332.200
10
485376.000
20
4512332.560
10
485382.000
20
4512332.910
10
485388.000
20
4512333.250
10
485394.000
20
4512333.570
10
485395.000
20
4512333.620
10
485395.000
20
4512346.620
10
485394.000
20
4512346.570
10
485388.000
20
4512346.250
10
485382.000
20
4512345.910
10
485376.000
20
4512345.560
10
485370.000
20
4512345.200
10
485364.000
20
4512344.820
10
485358.000
20
4512344.420
10
485352.000
20
4512344.020
10
485346.000
20
4512343.600
10
485340.000
20
4512343.160
10
485334.000
20
4512342.720
10
485328.000
20
4512342.260
10
485322.000
20
4512341.780
10
485316.000
20
4512341.290
10
485310.000
20
4512340.790
10
485304.000
20
4512340.270
10
485298.000
20
4512339.750
10
485292.000
20
4512339.200
10
485286.000
20
4512338.650
10
485280.000
20
4512338.080
10
485274.000
20
4512337.500
10
485268.000
20
4512336.910
10
485262.000
20
4512336.300
10
485256.000
20
4512335.680
10
485250.000
20
4512335.050
10
485244.000
20
4512334.410
10
485238.000
20
4512333.760
10
485232.000
20
4512333.090
10
485226.000
20
4512332.410
10
485220.000
20
4512331.720
10
485214.000
20
4512331.020
10
485208.000
20
4512330.310
10
485202.000
20
4512329.590
10
485196.000
20
4512328.860
10
485190.000
20
4512328.120
10
485184.000
20
4512327.370
10
485178.000
20
4512326.610
10
485172.000
20
4512325.830
10
485166.000
20
4512325.050
10
485160.000
20
4512324.270
10
485154.000
20
4512323.470
10
485148.000
20
4512322.660
10
485142.000
20
4512321.850
10
485136.000
20
4512321.030
10
485130.000
20
4512320.200
10
485124.000
20
4512319.360
10
485118.000
20
4512318.520
10
485112.000
20
4512317.670
10
485106.000
20
4512316.810
10
485100.000
20
4512315.950
10
485094.000
20
4512315.080
10
485088.000
20
4512314.210
10
485082.000
20
4512313.330
10
485076.000
20
4512312.450
10
485070.000
20
4512311.560
10
485064.000
20
4512310.670
10
485058.000
20
4512309.770
10
485052.000
20
4512308.870
10
485046.000
20
4512307.970
10
485040.000
20
4512307.070
0
LWPOLYLINE
8
C-ASPHALT
90
116
70
1
10
485040.000
20
4512275.070
10
485046.000
20
4512275.970
10
485052.000
20
4512276.870
10
485058.000
20
4512277.770
10
485064.000
20
4512278.670
10
485070.000
20
4512279.560
10
485076.000
20
4512280.450
10
485082.000
20
4512281.330
10
485088.000
20
4512282.210
10
485094.000
20
4512283.080
10
485100.000
20
4512283.950
10
485106.000
20
4512284.810
10
485112.000
20
4512285.670
10
485118.000
20
4512286.520
10
485124.000
20
4512287.360
10
485130.000
20
4512288.200
10
485136.000
20
4512289.030
10
485142.000
20
4512289.850
10
485148.000
20
4512290.660
10
485154.000
20
4512291.470
10
485160.000
20
4512292.270
10
485166.000
20
4512293.050
10
485172.000
20
4512293.830
10
485178.000
20
4512294.610
10
485184.000
20
4512295.370
10
485190.000
20
4512296.120
10
485196.000
20
4512296.860
10
485202.000
20
4512297.590
10
485208.000
20
4512298.310
10
485214.000
20
4512299.020
10
485220.000
20
4512299.720
10
485226.000
20
4512300.410
10
485232.000
20
4512301.090
10
485238.000
20
4512301.760
10
485244.000
20
4512302.410
10
485250.000
20
4512303.050
10
485256.000
20
4512303.680
10
485262.000
20
4512304.300
10
485268.000
20
4512304.910
10
485274.000
20
4512305.500
10
485280.000
20
4512306.080
10
485286.000
20
4512306.650
10
485292.000
20
4512307.200
10
485298.000
20
4512307.750
10
485304.000
20
4512308.270
10
485310.000
20
4512308.790
10
485316.000
20
4512309.290
10
485322.000
20
4512309.780
10
485328.000
20
4512310.260
10
485334.000
20
4512310.720
10
485340.000
20
4512311.160
10
485346.000
20
4512311.600
10
485352.000
20
4512312.020
10
485358.000
20
4512312.420
10
485364.000
20
4512312.820
10
485370.000
20
4512313.200
10
485376.000
20
4512313.560
10
485380.000
20
4512313.800
10
485380.000
20
4512326.800
10
485376.000
20
4512326.560
10
485370.000
20
4512326.200
10
485364.000
20
4512325.820
10
485358.000
20
4512325.420
10
485352.000
20
4512325.020
10
485346.000
20
4512324.600
10
485340.000
20
4512324.160
10
485334.000
20
4512323.720
10
485328.000
20
4512323.260
10
485322.000
20
4512322.780
10
485316.000
20
4512322.290
10
485310.000
20
4512321.790
10
485304.000
20
4512321.270
10
485298.000
20
4512320.750
10
485292.000
20
4512320.200
10
485286.000
20
4512319.650
10
485280.000
20
4512319.080
10
485274.000
20
4512318.500
10
485268.000
20
4512317.910
10
485262.000
20
4512317.300
10
485256.000
20
4512316.680
10
485250.000
20
4512316.050
10
485244.000
20
4512315.410
10
485238.000
20
4512314.760
10
485232.000
20
4512314.090
10
485226.000
20
4512313.410
10
485220.000
20
4512312.720
10
485214.000
20
4512312.020
10
485208.000
20
4512311.310
10
485202.000
20
4512310.590
10
485196.000
20
4512309.860
10
485190.000
20
4512309.120
10
485184.000
20
4512308.370
10
485178.000
20
4512307.610
10
485172.000
20
4512306.830
10
485166.000
20
4512306.050
10
485160.000
20
4512305.270
10
485154.000
20
4512304.470
10
485148.000
20
4512303.660
10
485142.000
20
4512302.850
10
485136.000
20
4512302.030
10
485130.000
20
4512301.200
10
485124.000
20
4512300.360
10
485118.000
20
4512299.520
10
485112.000
20
4512298.670
10
485106.000
20
4512297.810
10
485100.000
20
4512296.950
10
485094.000
20
4512296.080
10
485088.000
20
4512295.210
10
485082.000
20
4512294.330
10
485076.000
20
4512293.450
10
485070.000
20
4512292.560
10
485064.000
20
4512291.670
10
485058.000
20
4512290.770
10
485052.000
20
4512289.870
10
485046.000
20
4512288.970
10
485040.000
20
4512288.070
0
LWPOLYLINE
8
C-ASPHALT
90
216
70
1
10
485395.000
20
4512171.400
10
485399.000
20
4512171.400
10
485403.000
20
4512171.410
10
485407.000
20
4512171.430
10
485411.000
20
4512171.460
10
485415.000
20
4512171.490
10
485419.000
20
4512171.530
10
485423.000
20
4512171.570
10
485427.000
20
4512171.630
10
485431.000
20
4512171.690
10
485435.000
20
4512171.750
10
485439.000
20
4512171.830
10
485443.000
20
4512171.910
10
485447.000
20
4512172.000
10
485451.000
20
4512172.090
10
485455.000
20
4512172.190
10
485459.000
20
4512172.300
10
485463.000
20
4512172.420
10
485467.000
20
4512172.540
10
485471.000
20
4512172.670
10
485475.000
20
4512172.810
10
485479.000
20
4512172.960
10
485483.000
20
4512173.110
10
485487.000
20
4512173.270
10
485491.000
20
4512173.430
10
485495.000
20
4512173.600
10
485499.000
20
4512173.780
10
485503.000
20
4512173.970
10
485507.000
20
4512174.160
10
485511.000
20
4512174.370
10
485515.000
20
4512174.570
10
485519.000
20
4512174.790
10
485523.000
20
4512175.010
10
485527.000
20
4512175.240
10
485531.000
20
4512175.480
10
485535.000
20
4512175.720
10
485539.000
20
4512175.970
10
485543.000
20
4512176.230
10
485547.000
20
4512176.490
10
485551.000
20
4512176.760
10
485555.000
20
4512177.040
10
485559.000
20
4512177.330
10
485563.000
20
4512177.620
10
485567.000
20
4512177.920
10
485571.000
20
4512178.230
10
485575.000
20
4512178.540
10
485579.000
20
4512178.860
10
485583.000
20
4512179.190
10
485587.000
20
4512179.530
10
485591.000
20
4512179.870
10
485595.000
20
4512180.220
10
485599.000
20
4512180.570
10
485603.000
20
4512180.940
10
485607.000
20
4512181.310
10
485611.000
20
4512181.680
10
485615.000
20
4512182.070
10
485619.000
20
4512182.460
10
485623.000
20
4512182.860
10
485627.000
20
4512183.260
10
485631.000
20
4512183.680
10
485635.000
20
4512184.100
10
485639.000
20
4512184.520
10
485643.000
20
4512184.960
10
485647.000
20
4512185.400
10
485651.000
20
4512185.850
10
485655.000
20
4512186.300
10
485659.000
20
4512186.760
10
485663.000
20
4512187.230
10
485667.000
20
4512187.710
10
485671.000
20
4512188.190
10
485675.000
20
4512188.680
10
485679.000
20
4512189.180
10
485683.000
20
4512189.680
10
485687.000
20
4512190.190
10
485691.000
20
4512190.710
10
485695.000
20
4512191.240
10
485699.000
20
4512191.770
10
485703.000
20
4512192.310
10
485707.000
20
4512192.860
10
485711.000
20
4512193.410
10
485715.000
20
4512193.970
10
485719.000
20
4512194.540
10
485723.000
20
4512195.110
10
485727.000
20
4512195.700
10
485731.000
20
4512196.280
10
485735.000
20
4512196.880
10
485739.000
20
4512197.480
10
485743.000
20
4512198.090
10
485747.000
20
4512198.710
10
485751.000
20
4512199.330
10
485755.000
20
4512199.970
10
485759.000
20
4512200.600
10
485763.000
20
4512201.250
10
485767.000
20
4512201.900
10
485771.000
20
4512202.560
10
485775.000
20
4512203.230
10
485779.000
20
4512203.900
10
485783.000
20
4512204.580
10
485787.000
20
4512205.270
10
485791.000
20
4512205.960
10
485795.000
20
4512206.670
10
485799.000
20
4512207.380
10
485803.000
20
4512208.090
10
485807.000
20
4512208.810
10
485811.000
20
4512209.540
10
485815.000
20
4512210.280
10
485819.000
20
4512211.030
10
485821.000
20
4512211.400
10
485821.000
20
4512218.600
10
485819.000
20
4512218.230
10
485815.000
20
4512217.480
10
485811.000
20
4512216.740
10
485807.000
20
4512216.010
10
485803.000
20
4512215.290
10
485799.000
20
4512214.580
10
485795.000
20
4512213.870
10
485791.000
20
4512213.160
10
485787.000
20
4512212.470
10
485783.000
20
4512211.780
10
485779.000
20
4512211.100
10
485775.000
20
4512210.430
10
485771.000
20
4512209.760
10
485767.000
20
4512209.100
10
485763.000
20
4512208.450
10
485759.000
20
4512207.800
10
485755.000
20
4512207.170
10
485751.000
20
4512206.530
10
485747.000
20
4512205.910
10
485743.000
20
4512205.290
10
485739.000
20
4512204.680
10
485735.000
20
4512204.080
10
485731.000
20
4512203.480
10
485727.000
20
4512202.900
10
485723.000
20
4512202.310
10
485719.000
20
4512201.740
10
485715.000
20
4512201.170
10
485711.000
20
4512200.610
10
485707.000
20
4512200.060
10
485703.000
20
4512199.510
10
485699.000
20
4512198.970
10
485695.000
20
4512198.440
10
485691.000
20
4512197.910
10
485687.000
20
4512197.390
10
485683.000
20
4512196.880
10
485679.000
20
4512196.380
10
485675.000
20
4512195.880
10
485671.000
20
4512195.390
10
485667.000
20
4512194.910
10
485663.000
20
4512194.430
10
485659.000
20
4512193.960
10
485655.000
20
4512193.500
10
485651.000
20
4512193.050
10
485647.000
20
4512192.600
10
485643.000
20
4512192.160
10
485639.000
20
4512191.720
10
485635.000
20
4512191.300
10
485631.000
20
4512190.880
10
485627.000
20
4512190.460
10
485623.000
20
4512190.060
10
485619.000
20
4512189.660
10
485615.000
20
4512189.270
10
485611.000
20
4512188.880
10
485607.000
20
4512188.510
10
485603.000
20
4512188.140
10
485599.000
20
4512187.770
10
485595.000
20
4512187.420
10
485591.000
20
4512187.070
10
485587.000
20
4512186.730
10
485583.000
20
4512186.390
10
485579.000
20
4512186.060
10
485575.000
20
4512185.740
10
485571.000
20
4512185.430
10
485567.000
20
4512185.120
10
485563.000
20
4512184.820
10
485559.000
20
4512184.530
10
485555.000
20
4512184.240
10
485551.000
20
4512183.960
10
485547.000
20
4512183.690
10
485543.000
20
4512183.430
10
485539.000
20
4512183.170
10
485535.000
20
4512182.920
10
485531.000
20
4512182.680
10
485527.000
20
4512182.440
10
485523.000
20
4512182.210
10
485519.000
20
4512181.990
10
485515.000
20
4512181.770
10
485511.000
20
4512181.570
10
485507.000
20
4512181.360
10
485503.000
20
4512181.170
10
485499.000
20
4512180.980
10
485495.000
20
4512180.800
10
485491.000
20
4512180.630
10
485487.000
20
4512180.470
10
485483.000
20
4512180.310
10
485479.000
20
4512180.160
10
485475.000
20
4512180.010
10
485471.000
20
4512179.870
10
485467.000
20
4512179.740
10
485463.000
20
4512179.620
10
485459.000
20
4512179.500
10
485455.000
20
4512179.390
10
485451.000
20
4512179.290
10
485447.000
20
4512179.200
10
485443.000
20
4512179.110
10
485439.000
20
4512179.030
10
485435.000
20
4512178.950
10
485431.000
20
4512178.890
10
485427.000
20
4512178.830
10
485423.000
20
4512178.770
10
485419.000
20
4512178.730
10
485415.000
20
4512178.690
10
485411.000
20
4512178.660
10
485407.000
20
4512178.630
10
485403.000
20
4512178.610
10
485399.000
20
4512178.600
10
485395.000
20
4512178.600
0
LWPOLYLINE
8
C-EXCAVATION
90
92
70
1
10
485520.000
20
4512302.270
10
485526.000
20
4512302.300
10
485532.000
20
4512302.330
10
485538.000
20
4512302.350
10
485544.000
20
4512302.350
10
485550.000
20
4512302.350
10
485556.000
20
4512302.330
10
485562.000
20
4512302.310
10
485568.000
20
4512302.270
10
485574.000
20
4512302.230
10
485580.000
20
4512302.180
10
485586.000
20
4512302.110
10
485592.000
20
4512302.040
10
485598.000
20
4512301.960
10
485604.000
20
4512301.870
10
485610.000
20
4512301.770
10
485616.000
20
4512301.670
10
485622.000
20
4512301.560
10
485628.000
20
4512301.440
10
485634.000
20
4512301.310
10
485640.000
20
4512301.180
10
485646.000
20
4512301.040
10
485652.000
20
4512300.900
10
485658.000
20
4512300.750
10
485664.000
20
4512300.590
10
485670.000
20
4512300.440
10
485676.000
20
4512300.270
10
485682.000
20
4512300.100
10
485688.000
20
4512299.930
10
485694.000
20
4512299.750
10
485700.000
20
4512299.570
10
485706.000
20
4512299.390
10
485712.000
20
4512299.210
10
485718.000
20
4512299.020
10
485724.000
20
4512298.830
10
485730.000
20
4512298.640
10
485736.000
20
4512298.450
10
485742.000
20
4512298.260
10
485748.000
20
4512298.060
10
485754.000
20
4512297.870
10
485760.000
20
4512297.680
10
485766.000
20
4512297.490
10
485772.000
20
4512297.300
10
485778.000
20
4512297.110
10
485784.000
20
4512296.920
10
485790.000
20
4512296.730
10
485790.000
20
4512360.730
10
485784.000
20
4512360.920
10
485778.000
20
4512361.110
10
485772.000
20
4512361.300
10
485766.000
20
4512361.490
10
485760.000
20
4512361.680
10
485754.000
20
4512361.870
10
485748.000
20
4512362.060
10
485742.000
20
4512362.260
10
485736.000
20
4512362.450
10
485730.000
20
4512362.640
10
485724.000
20
4512362.830
10
485718.000
20
4512363.020
10
485712.000
20
4512363.210
10
485706.000
20
4512363.390
10
485700.000
20
4512363.570
10
485694.000
20
4512363.750
10
485688.000
20
4512363.930
10
485682.000
20
4512364.100
10
485676.000
20
4512364.270
10
485670.000
20
4512364.440
10
485664.000
20
4512364.590
10
485658.000
20
4512364.750
10
485652.000
20
4512364.900
10
485646.000
20
4512365.040
10
485640.000
20
4512365.180
10
485634.000
20
4512365.310
10
485628.000
20
4512365.440
10
485622.000
20
4512365.560
10
485616.000
20
4512365.670
10
485610.000
20
4512365.770
10
485604.000
20
4512365.870
10
485598.000
20
4512365.960
10
485592.000
20
4512366.040
10
485586.000
20
4512366.110
10
485580.000
20
4512366.180
10
485574.000
20
4512366.230
10
485568.000
20
4512366.270
10
485562.000
20
4512366.310
10
485556.000
20
4512366.330
10
485550.000
20
4512366.350
10
485544.000
20
4512366.350
10
485538.000
20
4512366.350
10
485532.000
20
4512366.330
10
485526.000
20
4512366.300
10
485520.000
20
4512366.270
0
LWPOLYLINE
8
C-EXCAVATION
90
74
70
1
10
485926.790
20
4512371.230
10
485932.530
20
4512374.680
10
485937.740
20
4512378.890
10
485942.300
20
4512383.790
10
485946.140
20
4512389.280
10
485949.180
20
4512395.240
10
485951.360
20
4512401.580
10
485952.640
20
4512408.150
10
485952.990
20
4512414.840
10
485952.410
20
4512421.510
10
485950.900
20
4512428.030
10
485948.500
20
4512434.280
10
485945.260
20
4512440.140
10
485941.230
20
4512445.490
10
485936.490
20
4512450.220
10
485931.140
20
4512454.260
10
485925.290
20
4512457.500
10
485919.030
20
4512459.900
10
485912.510
20
4512461.410
10
485905.840
20
4512461.990
10
485899.150
20
4512461.640
10
485892.580
20
4512460.360
10
485886.240
20
4512458.180
10
485880.280
20
4512455.140
10
485874.790
20
4512451.300
10
485869.900
20
4512446.730
10
485865.680
20
4512441.530
10
485862.230
20
4512435.790
10
485859.620
20
4512429.630
10
485857.880
20
4512423.160
10
485857.070
20
4512416.510
10
485857.180
20
4512409.820
10
485858.230
20
4512403.200
10
485860.190
20
4512396.800
10
485863.020
20
4512390.730
10
485866.670
20
4512385.110
10
485871.060
20
4512380.060
10
485885.200
20
4512394.200
10
485882.640
20
4512397.150
10
485880.510
20
4512400.420
10
485878.860
20
4512403.960
10
485877.720
20
4512407.700
10
485877.110
20
4512411.560
10
485877.040
20
4512415.460
10
485877.510
20
4512419.340
10
485878.530
20
4512423.110
10
485880.050
20
4512426.710
10
485882.060
20
4512430.060
10
485884.520
20
4512433.090
10
485887.380
20
4512435.760
10
485890.580
20
4512438.000
10
485894.060
20
4512439.770
10
485897.750
20
4512441.040
10
485901.590
20
4512441.790
10
485905.490
20
4512441.990
10
485909.380
20
4512441.650
10
485913.190
20
4512440.780
10
485916.830
20
4512439.380
10
485920.250
20
4512437.480
10
485923.370
20
4512435.130
10
485926.130
20
4512432.370
10
485928.480
20
4512429.250
10
485930.380
20
4512425.830
10
485931.780
20
4512422.190
10
485932.660
20
4512418.380
10
485933.000
20
4512414.490
10
485932.790
20
4512410.590
10
485932.050
20
4512406.750
10
485930.770
20
4512403.060
10
485929.000
20
4512399.580
10
485926.760
20
4512396.380
10
485924.100
20
4512393.520
10
485921.060
20
4512391.060
10
485917.710
20
4512389.050
0
LWPOLYLINE
8
C-EXCAVATION
90
58
70
1
10
485985.000
20
4512295.780
10
485991.000
20
4512295.840
10
485997.000
20
4512295.910
10
486003.000
20
4512295.990
10
486009.000
20
4512296.090
10
486015.000
20
4512296.190
10
486021.000
20
4512296.310
10
486027.000
20
4512296.450
10
486033.000
20
4512296.590
10
486039.000
20
4512296.750
10
486045.000
20
4512296.920
10
486051.000
20
4512297.110
10
486057.000
20
4512297.310
10
486063.000
20
4512297.520
10
486069.000
20
4512297.740
10
486075.000
20
4512297.980
10
486081.000
20
4512298.230
10
486087.000
20
4512298.500
10
486093.000
20
4512298.780
10
486099.000
20
4512299.070
10
486105.000
20
4512299.380
10
486111.000
20
4512299.700
10
486117.000
20
4512300.030
10
486123.000
20
4512300.380
10
486129.000
20
4512300.740
10
486135.000
20
4512301.120
10
486141.000
20
4512301.510
10
486147.000
20
4512301.910
10
486150.000
20
4512302.120
10
486150.000
20
4512360.120
10
486147.000
20
4512359.910
10
486141.000
20
4512359.510
10
486135.000
20
4512359.120
10
486129.000
20
4512358.740
10
486123.000
20
4512358.380
10
486117.000
20
4512358.030
10
486111.000
20
4512357.700
10
486105.000
20
4512357.380
10
486099.000
20
4512357.070
10
486093.000
20
4512356.780
10
486087.000
20
4512356.500
10
486081.000
20
4512356.230
10
486075.000
20
4512355.980
10
486069.000
20
4512355.740
10
486063.000
20
4512355.520
10
486057.000
20
4512355.310
10
486051.000
20
4512355.110
10
486045.000
20
4512354.920
10
486039.000
20
4512354.750
10
486033.000
20
4512354.590
10
486027.000
20
4512354.450
10
486021.000
20
4512354.310
10
486015.000
20
4512354.190
10
486009.000
20
4512354.090
10
486003.000
20
4512353.990
10
485997.000
20
4512353.910
10
485991.000
20
4512353.840
10
485985.000
20
4512353.780
0
LWPOLYLINE
8
C-DEMOLITION
90
64
70
1
10
485396.480
20
4512189.050
10
485398.480
20
4512195.050
10
485400.480
20
4512201.050
10
485402.480
20
4512207.050
10
485404.480
20
4512213.050
10
485406.480
20
4512219.050
10
485408.480
20
4512225.050
10
485410.480
20
4512231.050
10
485412.480
20
4512237.050
10
485414.480
20
4512243.050
10
485416.480
20
4512249.050
10
485418.320
20
4512255.050
10
485420.130
20
4512261.050
10
485421.940
20
4512267.050
10
485423.740
20
4512273.050
10
485425.550
20
4512279.050
10
485427.360
20
4512285.050
10
485429.160
20
4512291.050
10
485430.970
20
4512297.050
10
485432.780
20
4512303.050
10
485434.590
20
4512309.050
10
485436.390
20
4512315.050
10
485438.200
20
4512321.050
10
485440.010
20
4512327.050
10
485441.810
20
4512333.050
10
485443.400
20
4512339.050
10
485444.990
20
4512345.050
10
485446.570
20
4512351.050
10
485448.160
20
4512357.050
10
485449.740
20
4512363.050
10
485451.330
20
4512369.050
10
485452.300
20
4512372.730
10
485458.700
20
4512372.730
10
485457.730
20
4512369.050
10
485456.140
20
4512363.050
10
485454.560
20
4512357.050
10
485452.970
20
4512351.050
10
485451.390
20
4512345.050
10
485449.800
20
4512339.050
10
485448.210
20
4512333.050
10
485446.410
20
4512327.050
10
485444.600
20
4512321.050
10
485442.790
20
4512315.050
10
485440.990
20
4512309.050
10
485439.180
20
4512303.050
10
485437.370
20
4512297.050
10
485435.560
20
4512291.050
10
485433.760
20
4512285.050
10
485431.950
20
4512279.050
10
485430.140
20
4512273.050
10
485428.340
20
4512267.050
10
485426.530
20
4512261.050
10
485424.720
20
4512255.050
10
485422.880
20
4512249.050
10
485420.880
20
4512243.050
10
485418.880
20
4512237.050
10
485416.880
20
4512231.050
10
485414.880
20
4512225.050
10
485412.880
20
4512219.050
10
485410.880
20
4512213.050
10
485408.880
20
4512207.050
10
485406.880
20
4512201.050
10
485404.880
20
4512195.050
10
485402.880
20
4512189.050
0
LWPOLYLINE
8
C-DEMOLITION
90
4
70
1
10
485820.550
20
4512257.510
10
485834.550
20
4512397.510
10
485842.950
20
4512397.510
10
485828.950
20
4512257.510
0
LWPOLYLINE
8
C-ROAD-REF
90
121
70
0
10
485000.000
20
4512285.000
10
485010.000
20
4512286.520
10
485020.000
20
4512288.040
10
485030.000
20
4512289.560
10
485040.000
20
4512291.070
10
485050.000
20
4512292.570
10
485060.000
20
4512294.070
10
485070.000
20
4512295.560
10
485080.000
20
4512297.040
10
485090.000
20
4512298.500
10
485100.000
20
4512299.950
10
485110.000
20
4512301.380
10
485120.000
20
4512302.800
10
485130.000
20
4512304.200
10
485140.000
20
4512305.570
10
485150.000
20
4512306.930
10
485160.000
20
4512308.270
10
485170.000
20
4512309.580
10
485180.000
20
4512310.860
10
485190.000
20
4512312.120
10
485200.000
20
4512313.350
10
485210.000
20
4512314.550
10
485220.000
20
4512315.720
10
485230.000
20
4512316.870
10
485240.000
20
4512317.980
10
485250.000
20
4512319.050
10
485260.000
20
4512320.100
10
485270.000
20
4512321.110
10
485280.000
20
4512322.080
10
485290.000
20
4512323.020
10
485300.000
20
4512323.920
10
485310.000
20
4512324.790
10
485320.000
20
4512325.620
10
485330.000
20
4512326.410
10
485340.000
20
4512327.160
10
485350.000
20
4512327.880
10
485360.000
20
4512328.560
10
485370.000
20
4512329.200
10
485380.000
20
4512329.800
10
485390.000
20
4512330.360
10
485400.000
20
4512330.880
10
485410.000
20
4512331.360
10
485420.000
20
4512331.810
10
485430.000
20
4512332.220
10
485440.000
20
4512332.590
10
485450.000
20
4512332.920
10
485460.000
20
4512333.220
10
485470.000
20
4512333.480
10
485480.000
20
4512333.710
10
485490.000
20
4512333.900
10
485500.000
20
4512334.050
10
485510.000
20
4512334.180
10
485520.000
20
4512334.270
10
485530.000
20
4512334.320
10
485540.000
20
4512334.350
10
485550.000
20
4512334.350
10
485560.000
20
4512334.320
10
485570.000
20
4512334.260
10
485580.000
20
4512334.180
10
485590.000
20
4512334.070
10
485600.000
20
4512333.930
10
485610.000
20
4512333.770
10
485620.000
20
4512333.600
10
485630.000
20
4512333.400
10
485640.000
20
4512333.180
10
485650.000
20
4512332.950
10
485660.000
20
4512332.700
10
485670.000
20
4512332.440
10
485680.000
20
4512332.160
10
485690.000
20
4512331.870
10
485700.000
20
4512331.570
10
485710.000
20
4512331.270
10
485720.000
20
4512330.960
10
485730.000
20
4512330.640
10
485740.000
20
4512330.320
10
485750.000
20
4512330.000
10
485760.000
20
4512329.680
10
485770.000
20
4512329.360
10
485780.000
20
4512329.040
10
485790.000
20
4512328.730
10
485800.000
20
4512328.430
10
485810.000
20
4512328.130
10
485820.000
20
4512327.840
10
485830.000
20
4512327.560
10
485840.000
20
4512327.300
10
485850.000
20
4512327.050
10
485860.000
20
4512326.820
10
485870.000
20
4512326.600
10
485880.000
20
4512326.400
10
485890.000
20
4512326.230
10
485900.000
20
4512326.070
10
485910.000
20
4512325.930
10
485920.000
20
4512325.820
10
485930.000
20
4512325.740
10
485940.000
20
4512325.680
10
485950.000
20
4512325.650
10
485960.000
20
4512325.650
10
485970.000
20
4512325.680
10
485980.000
20
4512325.730
10
485990.000
20
4512325.820
10
486000.000
20
4512325.950
10
486010.000
20
4512326.100
10
486020.000
20
4512326.290
10
486030.000
20
4512326.520
10
486040.000
20
4512326.780
10
486050.000
20
4512327.080
10
486060.000
20
4512327.410
10
486070.000
20
4512327.780
10
486080.000
20
4512328.190
10
486090.000
20
4512328.640
10
486100.000
20
4512329.120
10
486110.000
20
4512329.640
10
486120.000
20
4512330.200
10
486130.000
20
4512330.800
10
486140.000
20
4512331.440
10
486150.000
20
4512332.120
10
486160.000
20
4512332.840
10
486170.000
20
4512333.590
10
486180.000
20
4512334.380
10
486190.000
20
4512335.210
10
486200.000
20
4512336.080
0
TEXT
8
C-ANNO
10
485100.000
20
4512299.950
40
2.5
1
0+100
0
TEXT
8
C-ANNO
10
485200.000
20
4512313.350
40
2.5
1
0+200
0
TEXT
8
C-ANNO
10
485300.000
20
4512323.920
40
2.5
1
0+300
0
TEXT
8
C-ANNO
10
485400.000
20
4512330.880
40
2.5
1
0+400
0
TEXT
8
C-ANNO
10
485500.000
20
4512334.050
40
2.5
1
0+500
0
TEXT
8
C-ANNO
10
485600.000
20
4512333.930
40
2.5
1
0+600
0
TEXT
8
C-ANNO
10
485700.000
20
4512331.570
40
2.5
1
0+700
0
TEXT
8
C-ANNO
10
485800.000
20
4512328.430
40
2.5
1
0+800
0
TEXT
8
C-ANNO
10
485900.000
20
4512326.070
40
2.5
1
0+900
0
TEXT
8
C-ANNO
10
486000.000
20
4512325.950
40
2.5
1
1+000
0
TEXT
8
C-ANNO
10
486100.000
20
4512329.120
40
2.5
1
1+100
0
ENDSEC
0
EOF
